<?xml version="1.0" encoding="UTF-8" standalone="no"?>
<!-- Created with Inkscape (http://www.inkscape.org/) -->

<svg
   version="1.1"
   id="svg1"
   width="864.70099"
   height="710.06201"
   viewBox="0 0 864.70099 710.06201"
   sodipodi:docname="Blue_Disney_D.png"
   xmlns:inkscape="http://www.inkscape.org/namespaces/inkscape"
   xmlns:sodipodi="http://sodipodi.sourceforge.net/DTD/sodipodi-0.dtd"
   xmlns="http://www.w3.org/2000/svg"
   xmlns:svg="http://www.w3.org/2000/svg">
  <defs
     id="defs1" />
  <sodipodi:namedview
     id="namedview1"
     pagecolor="#ffffff"
     bordercolor="#000000"
     borderopacity="0.25"
     inkscape:showpageshadow="2"
     inkscape:pageopacity="0.0"
     inkscape:pagecheckerboard="0"
     inkscape:deskcolor="#d1d1d1">
    <inkscape:page
       x="0"
       y="0"
       width="864.70099"
       height="710.06201"
       id="page2"
       margin="0"
       bleed="0" />
  </sodipodi:namedview>
  <path
     d="m 674.47112,659.26947 c -107.55463,33.35894 -209.03275,17.91496 -264.3292,3.08878 -1.51913,22.85703 -3.94974,32.43223 -7.59567,36.13885 -4.25357,4.94204 -39.49746,25.32809 -58.94237,-3.70662 -8.50716,-13.89949 -12.76073,-38.91869 -15.19135,-61.77572 C 203.84361,575.56325 146.11651,490.93045 144.29356,487.84165 c -3.03825,-3.08878 -31.29414,-33.05005 -3.03825,-70.11553 26.43291,-33.35891 113.93499,-67.02671 192.32228,-80.3085 3.03825,-67.95335 10.33011,-120.46279 19.74873,-143.62869 11.2416,-27.7991 25.52145,-3.08881 38.28218,15.44393 10.33008,13.89956 16.71044,73.5132 17.31811,121.08056 51.04288,-2.47104 82.03321,1.23548 138.84879,12.35515 74.74138,12.97292 124.56895,51.89165 120.61921,95.75245 -3.64593,43.24306 -42.53575,61.15802 -57.7271,62.39354 -15.19131,1.23552 -39.49746,-10.19301 -39.49746,-10.19301 -17.01429,-8.03085 -1.51913,-15.44392 18.2296,-24.09255 21.87553,-10.81076 17.0143,-21.62151 17.0143,-21.62151 -7.89949,-24.71033 -104.8202,-41.0809 -201.13326,-41.0809 0,54.05382 2.12679,143.62869 3.64592,195.82925 67.44954,12.97288 117.88475,10.19298 117.88475,10.19298 0,0 246.09964,-7.10421 253.08764,-166.7946 C 787.4947,283.05493 533.79939,129.85096 346.94595,81.665863 160.39637,31.936373 54.66468,67.148563 45.54988,71.781753 c -10.02626,4.94205 -0.91146,6.79533 -0.91146,6.79533 0,0 10.02626,1.54439 28.25586,7.72199 18.22961,6.17755 3.64593,15.443917 3.64593,15.443917 -31.90179,11.11966 -67.4495303,4.6332 -74.4375303,-10.193007 -6.98801,-14.51728 4.55738,-27.79908 18.2296003,-47.25846 12.76072,-20.07712 27.3444,-19.45938 27.3444,-19.45938 230.90828,-81.852918 512.85944,64.86457 512.85944,64.86457 C 824.2577,224.98568 869.224,384.05834 864.3628,445.83413 860.1092,506.68328 837.0184,609.53995 674.47112,659.57834 M 167.08055,438.42102 c -26.12909,12.35515 -7.89949,32.1234 -7.89949,32.1234 49.21993,53.43608 109.37761,87.10387 167.10467,108.10765 6.68422,-92.66369 6.07655,-125.71374 6.07655,-172.35444 -89.32503,6.17755 -140.97558,21.00377 -165.28173,32.12339"
     id="path7"
     style="fill:#1e20ff;stroke-width:3.06343" />
</svg>
